<mxfile host="app.diagrams.net" modified="2023-01-05T20:44:47.771Z" agent="5.0 (Windows NT 10.0; Win64; x64) AppleWebKit/537.36 (KHTML, like Gecko) Chrome/108.0.0.0 Safari/537.36 Edg/108.0.1462.54" version="20.6.2" etag="_6xYBDPtJescrN_qkq6C" type="github">
  <diagram id="9782Lkdx7FoczSIXshVx" name="第 1 页">
    <mxGraphModel dx="1300" dy="794" grid="1" gridSize="10" guides="1" tooltips="1" connect="1" arrows="1" fold="1" page="1" pageScale="1" pageWidth="827" pageHeight="1169" math="0" shadow="0">
      <root>
        <mxCell id="0" />
        <mxCell id="1" parent="0" />
        <mxCell id="hPg7-dO7ndz1ARxZVG1T-19" style="edgeStyle=orthogonalEdgeStyle;curved=1;rounded=0;orthogonalLoop=1;jettySize=auto;html=1;exitX=0.5;exitY=0;exitDx=0;exitDy=0;" edge="1" parent="1" source="hPg7-dO7ndz1ARxZVG1T-1" target="hPg7-dO7ndz1ARxZVG1T-9">
          <mxGeometry relative="1" as="geometry" />
        </mxCell>
        <mxCell id="hPg7-dO7ndz1ARxZVG1T-20" style="edgeStyle=orthogonalEdgeStyle;curved=1;rounded=0;orthogonalLoop=1;jettySize=auto;html=1;exitX=1;exitY=0.5;exitDx=0;exitDy=0;entryX=0;entryY=0.5;entryDx=0;entryDy=0;" edge="1" parent="1" source="hPg7-dO7ndz1ARxZVG1T-1" target="hPg7-dO7ndz1ARxZVG1T-2">
          <mxGeometry relative="1" as="geometry" />
        </mxCell>
        <mxCell id="hPg7-dO7ndz1ARxZVG1T-1" value="尖端的通用技术平台" style="rounded=0;whiteSpace=wrap;html=1;fillColor=#008a00;fontColor=#ffffff;strokeColor=#005700;" vertex="1" parent="1">
          <mxGeometry x="110" y="386" width="350" height="60" as="geometry" />
        </mxCell>
        <mxCell id="hPg7-dO7ndz1ARxZVG1T-23" style="edgeStyle=orthogonalEdgeStyle;curved=1;rounded=0;orthogonalLoop=1;jettySize=auto;html=1;exitX=0.5;exitY=0;exitDx=0;exitDy=0;entryX=0.5;entryY=1;entryDx=0;entryDy=0;" edge="1" parent="1" source="hPg7-dO7ndz1ARxZVG1T-2" target="hPg7-dO7ndz1ARxZVG1T-9">
          <mxGeometry relative="1" as="geometry" />
        </mxCell>
        <mxCell id="hPg7-dO7ndz1ARxZVG1T-2" value="为各行业提供机器视觉检测装备" style="rounded=0;whiteSpace=wrap;html=1;fillColor=#008a00;fontColor=#ffffff;strokeColor=#005700;" vertex="1" parent="1">
          <mxGeometry x="548" y="386" width="200" height="60" as="geometry" />
        </mxCell>
        <mxCell id="hPg7-dO7ndz1ARxZVG1T-16" style="edgeStyle=orthogonalEdgeStyle;curved=1;rounded=0;orthogonalLoop=1;jettySize=auto;html=1;exitX=0.5;exitY=0;exitDx=0;exitDy=0;" edge="1" parent="1" source="hPg7-dO7ndz1ARxZVG1T-3" target="hPg7-dO7ndz1ARxZVG1T-1">
          <mxGeometry relative="1" as="geometry" />
        </mxCell>
        <mxCell id="hPg7-dO7ndz1ARxZVG1T-3" value="人力要求低" style="rounded=0;whiteSpace=wrap;html=1;fillColor=#f0a30a;fontColor=#000000;strokeColor=#BD7000;" vertex="1" parent="1">
          <mxGeometry x="110" y="506" width="80" height="60" as="geometry" />
        </mxCell>
        <mxCell id="hPg7-dO7ndz1ARxZVG1T-17" style="edgeStyle=orthogonalEdgeStyle;curved=1;rounded=0;orthogonalLoop=1;jettySize=auto;html=1;exitX=0.5;exitY=0;exitDx=0;exitDy=0;entryX=0.5;entryY=1;entryDx=0;entryDy=0;" edge="1" parent="1" source="hPg7-dO7ndz1ARxZVG1T-4" target="hPg7-dO7ndz1ARxZVG1T-1">
          <mxGeometry relative="1" as="geometry" />
        </mxCell>
        <mxCell id="hPg7-dO7ndz1ARxZVG1T-4" value="人员能力要求低" style="rounded=0;whiteSpace=wrap;html=1;fillColor=#f0a30a;fontColor=#000000;strokeColor=#BD7000;" vertex="1" parent="1">
          <mxGeometry x="215" y="506" width="100" height="60" as="geometry" />
        </mxCell>
        <mxCell id="hPg7-dO7ndz1ARxZVG1T-18" style="edgeStyle=orthogonalEdgeStyle;curved=1;rounded=0;orthogonalLoop=1;jettySize=auto;html=1;exitX=0.5;exitY=0;exitDx=0;exitDy=0;" edge="1" parent="1" source="hPg7-dO7ndz1ARxZVG1T-5" target="hPg7-dO7ndz1ARxZVG1T-1">
          <mxGeometry relative="1" as="geometry" />
        </mxCell>
        <mxCell id="hPg7-dO7ndz1ARxZVG1T-5" value="应用开发时间低" style="rounded=0;whiteSpace=wrap;html=1;fillColor=#f0a30a;fontColor=#000000;strokeColor=#BD7000;" vertex="1" parent="1">
          <mxGeometry x="340" y="506" width="120" height="60" as="geometry" />
        </mxCell>
        <mxCell id="hPg7-dO7ndz1ARxZVG1T-22" style="edgeStyle=orthogonalEdgeStyle;curved=1;rounded=0;orthogonalLoop=1;jettySize=auto;html=1;exitX=0.5;exitY=0;exitDx=0;exitDy=0;entryX=0.5;entryY=1;entryDx=0;entryDy=0;" edge="1" parent="1" source="hPg7-dO7ndz1ARxZVG1T-8" target="hPg7-dO7ndz1ARxZVG1T-2">
          <mxGeometry relative="1" as="geometry" />
        </mxCell>
        <mxCell id="hPg7-dO7ndz1ARxZVG1T-8" value="行业复制所需的技术人才孵化" style="rounded=0;whiteSpace=wrap;html=1;fillColor=#f0a30a;fontColor=#000000;strokeColor=#BD7000;" vertex="1" parent="1">
          <mxGeometry x="588" y="506" width="120" height="60" as="geometry" />
        </mxCell>
        <mxCell id="hPg7-dO7ndz1ARxZVG1T-9" value="同源技术多元应用" style="rounded=1;whiteSpace=wrap;html=1;fillColor=#a20025;fontColor=#ffffff;strokeColor=#6F0000;" vertex="1" parent="1">
          <mxGeometry x="390" y="190" width="170" height="80" as="geometry" />
        </mxCell>
      </root>
    </mxGraphModel>
  </diagram>
</mxfile>
